<?xml version="1.0" encoding="utf-8"?>
<!-- Generator: Adobe Illustrator 19.1.0, SVG Export Plug-In . SVG Version: 6.00 Build 0)  -->
<svg version="1.1" id="Layer_1" xmlns="http://www.w3.org/2000/svg" xmlns:xlink="http://www.w3.org/1999/xlink" x="0px" y="0px"
	 viewBox="0 0 75.7 97.9" enable-background="new 0 0 75.7 97.9" xml:space="preserve">
<path fill="#6EC7C7" d="M62.8,24.2C61.6,14.9,55.1,0,37.9,0s-23.7,14.9-25,24.2H0v73.7h75.7V24.2H62.8z M37.9,8
	c12.3,0,15.9,11.2,16.8,16.2H21C22,19.2,25.5,8,37.9,8z"/>
<g>
	<path fill="#FFFFFF" d="M37.9,63.9c10.5,0,17.5,10.4,17.7,10.9c0.9,1.4,0.5,3.2-0.9,4.2c-1.4,0.9-3.2,0.5-4.2-0.9
		c0-0.1-5.5-8.2-12.7-8.2c-7.4,0-13.8,8.2-13.8,8.3c-1,1.3-2.9,1.6-4.2,0.6c-1.3-1-1.6-2.9-0.6-4.2C19.6,74.1,27.5,63.9,37.9,63.9z"
		/>
</g>
<g>
	<circle fill="#FFFFFF" cx="24.4" cy="51.2" r="4.5"/>
</g>
<g>
	<circle fill="#FFFFFF" cx="49.4" cy="51.2" r="4.5"/>
</g>
</svg>
